# xmcd
#
# Track frame offsets:
#	150
#	13640
#	26617
#	37472
#	49957
#	65040
#	77992
#	91158
#	105263
#	120524
#	135393
#	149085
#	164093
#	179543
#	191269
#	204381
#	217797
#	231463
#	244197
#	259137
#	271030
#	285517
#	299509
#	314339
#
# Disc length: 4361 seconds
# Revision: 0
# Processed by: cddbd v1.5.2PL0 Copyright (c) Steve Scherf et al.
# Submitted via: dBpowerAMP V12.0
#
DISCID=6b110718
DTITLE=Big Bill Broonzy - Charly Blues Masterworks Volume 10 Big Bill Broonzy
DYEAR=2009
DGENRE=Blues
TTITLE0=I Love My Whiskey
TTITLE1=You've Been Mistreatin' Me
TTITLE2=I Stay Blues All The Time
TTITLE3=Water Coast Blues
TTITLE4=Five Feet Seven
TTITLE5=I Wonder
TTITLE6=Keep Your Hands Off Her
TTITLE7=Mindin' My Own Business
TTITLE8=Bill Bailey, Won't You Please
TTITLE9=Make My Getaway
TTITLE10=The Blue Tail Fly (Jimmy Crack Corn)
TTITLE11=Backwater Blues
TTITLE12=In The Evenin' (When The Sun Goes Down)
TTITLE13=Trouble In Mind
TTITLE14=Hey, Hey
TTITLE15=Stump Blues
TTITLE16=Get Back
TTITLE17=Willie Mae Blues
TTITLE18=Walkin' Down A Lonesome Road
TTITLE19=Mopper's Blues
TTITLE20=I Know She Will
TTITLE21=Hollerin' And Cryin' The Blues
TTITLE22=John Henry
TTITLE23=The Crawdad Song
EXTD=
EXTT0=
EXTT1=
EXTT2=
EXTT3=
EXTT4=
EXTT5=
EXTT6=
EXTT7=
EXTT8=
EXTT9=
EXTT10=
EXTT11=
EXTT12=
EXTT13=
EXTT14=
EXTT15=
EXTT16=
EXTT17=
EXTT18=
EXTT19=
EXTT20=
EXTT21=
EXTT22=
EXTT23=
PLAYORDER=
